<?xml version="1.0" encoding="UTF-8" standalone="no"?>
<!-- Created with Inkscape (http://www.inkscape.org/) -->

<svg
   width="24mm"
   height="24mm"
   viewBox="0 0 24 24"
   version="1.1"
   id="svg5"
   xml:space="preserve"
   inkscape:version="1.2.1 (9c6d41e410, 2022-07-14)"
   sodipodi:docname="favicon.svg"
   xmlns:inkscape="http://www.inkscape.org/namespaces/inkscape"
   xmlns:sodipodi="http://sodipodi.sourceforge.net/DTD/sodipodi-0.dtd"
   xmlns="http://www.w3.org/2000/svg"
   xmlns:svg="http://www.w3.org/2000/svg"><sodipodi:namedview
     id="namedview7"
     pagecolor="#ffffff"
     bordercolor="#000000"
     borderopacity="0.25"
     inkscape:showpageshadow="2"
     inkscape:pageopacity="0.0"
     inkscape:pagecheckerboard="false"
     inkscape:deskcolor="#d1d1d1"
     inkscape:document-units="mm"
     showgrid="false"
     inkscape:zoom="0.914906"
     inkscape:cx="754.17584"
     inkscape:cy="50.824894"
     inkscape:window-width="3440"
     inkscape:window-height="1351"
     inkscape:window-x="-9"
     inkscape:window-y="-9"
     inkscape:window-maximized="1"
     inkscape:current-layer="layer1" /><defs
     id="defs2" /><g
     inkscape:label="Calque 1"
     inkscape:groupmode="layer"
     id="layer1"
     transform="translate(-58.452736,-136.1182)"><rect
       style="fill:#333333;stroke-width:0.268601"
       id="rect267"
       width="24"
       height="24"
       x="58.452736"
       y="136.11819" /><path
       d="m 64.527115,153.21241 c -1.51466,-0.19751 -2.6024,-0.85168 -3.12237,-1.87779 -0.55652,-1.09823 -0.0393,-2.46987 1.14417,-3.03421 0.29113,-0.13884 0.40561,-0.29684 0.21507,-0.29684 -0.18492,0 -0.78234,-0.61632 -0.94546,-0.97536 -0.18587,-0.40913 -0.23205,-1.36833 -0.0846,-1.75625 0.13039,-0.34294 0.72204,-0.96408 1.16632,-1.22444 0.65217,-0.38219 1.2396,-0.51836 2.46697,-0.57182 0.99505,-0.0433 1.2803,-0.0217 1.9502,0.14767 1.77808,0.44964 2.69082,1.61909 2.32476,2.97858 -0.11368,0.42199 -0.80607,1.25627 -1.12728,1.35822 -0.2665,0.0846 -0.21555,0.17315 0.22189,0.38567 1.10883,0.53872 1.59516,1.44142 1.36207,2.52828 -0.30976,1.44434 -1.73103,2.30208 -3.94486,2.38074 -0.56245,0.02 -1.29456,7.2e-4 -1.62692,-0.0424 z m 2.45818,-1.85006 c 1.09175,-0.48294 1.03868,-1.74309 -0.0949,-2.25315 -0.81701,-0.3676 -2.09847,-0.30559 -2.74937,0.13304 -0.66961,0.45125 -0.68086,1.38731 -0.0228,1.8893 0.67708,0.51643 1.98351,0.6216 2.86698,0.23081 z m -0.67146,-4.01364 c 0.80517,-0.22362 1.1694,-0.87069 0.85869,-1.52547 -0.22827,-0.48104 -0.75531,-0.73448 -1.53373,-0.73755 -0.78022,-0.004 -1.2745,0.23284 -1.51878,0.72485 -0.50485,1.01684 0.79341,1.9271 2.19382,1.53817 z m 7.813447,5.81064 c -2.46278,-0.66326 -3.798647,-3.18528 -3.23834,-6.11375 0.43213,-2.25856 2.11815,-3.59741 4.53023,-3.59741 1.01249,0 1.63981,0.13008 2.3557,0.48847 1.00937,0.50531 1.49641,1.00444 2.04407,2.09483 0.7703,1.53364 0.52919,4.17315 -0.5069,5.5492 -0.51178,0.67971 -1.36837,1.27614 -2.203,1.53394 -0.73088,0.22573 -2.22632,0.24818 -2.98176,0.0447 z m 2.39702,-1.90425 c 0.44621,-0.22763 0.8796,-0.75354 1.06637,-1.29403 0.2287,-0.66183 0.27287,-1.79923 0.10118,-2.60548 -0.28228,-1.32551 -0.95902,-2.0327 -2.02086,-2.11182 -0.51742,-0.0386 -0.65666,-0.0105 -1.10346,0.219 -0.36166,0.18609 -0.59937,0.39487 -0.81218,0.71332 -0.41364,0.61893 -0.5229,1.06874 -0.5229,2.15286 0,0.51131 0.05,1.10358 0.111,1.31615 0.13302,0.46317 0.62092,1.20626 0.95055,1.44773 0.63705,0.46667 1.50926,0.53014 2.23031,0.16227 z m -16.121387,-3.00529 0.0611,0.86935"
       style="fill:#4d4d4d;fill-opacity:1;stroke-width:0.0929665"
       id="path328-9" /><g
       aria-label="vibe"
       id="text225"
       style="font-size:22.5778px;letter-spacing:-0.5715px;stroke-width:0.264583" /><path
       style="fill:#cccccc;stroke:none;stroke-width:0.0739038"
       d="m 68.772499,156.0312 c -3.808678,-0.44378 -6.666577,-2.21268 -8.073291,-4.99698 -0.340464,-0.67387 -0.522444,-1.3027 -0.613938,-2.12143 -0.07195,-0.64388 -0.06536,-0.89388 0.04386,-1.66582 0.160089,-1.13138 0.427439,-1.87733 0.973949,-2.71751 1.519876,-2.33659 4.469943,-3.77044 8.056383,-3.91572 4.191106,-0.16978 8.368186,1.60027 10.152054,4.30195 l 0.390387,0.59124 0.802169,0.0398 c 0.7201,0.0357 0.822352,0.0584 0.999413,0.22172 0.342159,0.31562 0.399895,0.56467 0.399895,1.72498 v 1.0674 l -0.227385,0.19133 c -0.195955,0.16489 -0.297014,0.19133 -0.73113,0.19133 -0.551848,0 -0.59347,0.0331 -0.59347,0.4725 0,0.34718 -0.258159,1.27783 -0.510422,1.84008 -0.977987,2.17975 -3.271707,3.84754 -6.214849,4.5189 -1.304843,0.29765 -3.502556,0.41368 -4.853634,0.25626 z m 4.188497,-1.8765 c 2.317348,-0.44086 3.963918,-1.40991 4.941231,-2.90805 0.595025,-0.91212 0.708955,-1.32864 0.71084,-2.5988 0.0013,-0.86553 -0.02551,-1.14977 -0.139272,-1.47808 -0.66833,-1.9285 -2.443357,-3.50563 -4.877219,-4.33344 -1.243641,-0.42299 -3.038515,-0.61138 -4.517734,-0.47419 -1.290327,0.11967 -2.213541,0.36683 -3.175686,0.85019 -1.467852,0.7374 -2.501563,1.81811 -3.007746,3.14449 -0.231249,0.60597 -0.239805,0.6674 -0.24188,1.73675 -0.0025,1.22786 0.06004,1.51257 0.526854,2.40188 1.033705,1.96938 3.449796,3.40323 6.35211,3.76971 0.732507,0.0925 2.693855,0.0293 3.428502,-0.11046 z"
       id="path295-6-0"
       sodipodi:nodetypes="ssssssscscscssssssscccsssscsssc" /><g
       id="g2323-6-0"
       style="fill:#fe6629;fill-opacity:1"
       transform="matrix(0.27932245,0,0,0.27932245,38.83808,94.610987)"><path
         d="m 108.94876,204.22063 c -0.94588,-0.4317 -1.76712,-0.82983 -1.82499,-0.88472 -0.18962,-0.17995 5.86349,-22.12073 6.29574,-22.82011 0.16515,-0.26723 0.61124,-0.23264 2.16807,0.16811 1.07807,0.27752 1.94585,0.61121 1.92836,0.74155 -0.0533,0.3976 -1.95781,7.27734 -2.48263,8.96824 -0.27102,0.87312 -1.28929,4.445 -2.26285,7.9375 -0.97356,3.4925 -1.84478,6.42297 -1.93601,6.51217 -0.0913,0.0892 -0.9398,-0.19104 -1.88569,-0.62274 z M 98.8946,198.18607 c -3.274214,-2.04392 -6.816324,-4.21056 -7.871354,-4.81475 -1.71506,-0.98218 -2.32063,-1.52242 -1.70654,-1.52242 0.19859,0 5.88167,-3.23174 12.721034,-7.23396 1.65595,-0.96903 3.05493,-1.76187 3.10885,-1.76187 0.0539,0 0.098,1.05318 0.098,2.34039 v 2.34039 l -4.81399,2.31189 -4.814014,2.3119 1.30829,0.73684 c 0.719524,0.40527 2.885834,1.59343 4.813984,2.64036 l 3.50573,1.90351 v 2.23236 c 0,1.2278 -0.0893,2.23219 -0.19844,2.23197 -0.10914,-2.2e-4 -2.87734,-1.67269 -6.15156,-3.71661 z"
         style="fill:#fe6629;fill-opacity:1;stroke-width:0.264583"
         id="path351-1-0"
         sodipodi:nodetypes="scsscsscsssssssccccscssss" /><path
         d="m 126.09199,187.66114 c 3.27421,2.04392 6.81632,4.21056 7.87135,4.81475 1.71506,0.98218 2.32063,1.52242 1.70654,1.52242 -0.19859,0 -5.88167,3.23174 -12.72103,7.23396 -1.65595,0.96903 -3.05493,1.76187 -3.10885,1.76187 -0.0539,0 -0.098,-1.05318 -0.098,-2.34039 v -2.34039 l 4.81399,-2.31189 4.81401,-2.3119 -1.30829,-0.73684 c -0.71952,-0.40527 -2.88583,-1.59343 -4.81398,-2.64036 l -3.50573,-1.90351 v -2.23236 c 0,-1.2278 0.0893,-2.23219 0.19844,-2.23197 0.10914,2.2e-4 2.87734,1.67269 6.15156,3.71661 z"
         style="fill:#fe6629;fill-opacity:1;stroke-width:0.264583"
         id="path374-6-6" /></g></g></svg>
