<?xml version="1.0" encoding="UTF-8" standalone="no"?>
<!-- Created with Inkscape (http://www.inkscape.org/) -->

<svg
   width="24mm"
   height="24mm"
   viewBox="0 0 24 24"
   version="1.1"
   id="svg5"
   xml:space="preserve"
   sodipodi:docname="icon_square.svg"
   inkscape:version="1.2.1 (9c6d41e410, 2022-07-14)"
   xmlns:inkscape="http://www.inkscape.org/namespaces/inkscape"
   xmlns:sodipodi="http://sodipodi.sourceforge.net/DTD/sodipodi-0.dtd"
   xmlns="http://www.w3.org/2000/svg"
   xmlns:svg="http://www.w3.org/2000/svg"><sodipodi:namedview
     id="namedview11"
     pagecolor="#ffffff"
     bordercolor="#000000"
     borderopacity="0.25"
     inkscape:showpageshadow="2"
     inkscape:pageopacity="0.0"
     inkscape:pagecheckerboard="0"
     inkscape:deskcolor="#d1d1d1"
     inkscape:document-units="mm"
     showgrid="false"
     inkscape:zoom="5.4066718"
     inkscape:cx="55.394522"
     inkscape:cy="61.405614"
     inkscape:window-width="1920"
     inkscape:window-height="974"
     inkscape:window-x="-11"
     inkscape:window-y="-11"
     inkscape:window-maximized="1"
     inkscape:current-layer="svg5" /><defs
     id="defs2" /><g
     aria-label="vibe"
     id="text225"
     style="font-size:22.5778px;letter-spacing:-0.5715px;stroke-width:0.264583"
     transform="translate(-58.452736,-136.1182)" /><rect
     style="opacity:1;fill:#333333;fill-opacity:1;stroke:none;stroke-width:2.46015;stroke-dasharray:9.84056, 4.92026"
     id="rect906"
     width="24"
     height="24"
     x="0"
     y="0" /><path
     d="m 4.5467338,18.90841 c -1.832253,-0.28276 -3.148069,-1.21928 -3.77706622,-2.68827 -0.673211,-1.57224 -0.04754,-3.53591 1.38407822,-4.34382 0.352174,-0.19877 0.490658,-0.42496 0.260166,-0.42496 -0.223694,0 -0.94638,-0.88234 -1.143703,-1.39634 C 1.0453656,9.4693 0.98950258,8.09609 1.1678697,7.54074 1.3255998,7.04978 2.0413068,6.16055 2.5787428,5.78781 c 0.788917,-0.54715 1.499518,-0.74209 2.984242,-0.81862 1.203692,-0.062 1.548753,-0.0311 2.359117,0.2114 2.1509052,0.64372 3.2550262,2.31792 2.8122112,4.26418 -0.137517,0.60413 -0.9750842,1.7985 -1.3636452,1.94445 -0.322379,0.12112 -0.260746,0.24789 0.268416,0.55213 1.3413262,0.77124 1.9296292,2.06356 1.6476652,3.61953 -0.37471,2.06774 -2.0939882,3.29569 -4.7720122,3.4083 -0.680384,0.0286 -1.566003,10e-4 -1.968052,-0.0607 z m 2.973609,-2.64857 c 1.320667,-0.69139 1.25647,-2.49544 -0.114798,-3.22565 -0.98832,-0.52626 -2.538476,-0.43748 -3.325856,0.19047 -0.810013,0.64601 -0.823622,1.98609 -0.02758,2.70475 0.81905,0.73933 2.399411,0.88989 3.468126,0.33043 z m -0.812251,-5.74599 c 0.973997,-0.32014 1.414599,-1.2465 1.038739,-2.18389 -0.276133,-0.68866 -0.913682,-1.05149 -1.855321,-1.05589 -0.943816,-0.006 -1.541736,0.33334 -1.837237,1.03771 -0.610706,1.45572 0.959772,2.75887 2.653819,2.20207 z m 9.4517612,8.3186 c -2.979174,-0.94953 -4.595144,-4.5601 -3.917352,-8.75254 0.522738,-3.23339 2.562282,-5.15011 5.480125,-5.15011 1.224788,0 1.983644,0.18623 2.849641,0.6993 1.221014,0.72341 1.810176,1.43798 2.472669,2.999 0.931816,2.19558 0.64015,5.97434 -0.613186,7.94432 -0.61909,0.97308 -1.655289,1.82694 -2.664924,2.19601 -0.88413,0.32316 -2.693133,0.3553 -3.606973,0.064 z m 2.899625,-2.72615 c 0.539771,-0.32588 1.064034,-1.07878 1.289966,-1.85256 0.276654,-0.94748 0.330085,-2.5758 0.122395,-3.73004 -0.341468,-1.89762 -1.160106,-2.91005 -2.444592,-3.02332 -0.625912,-0.0553 -0.794348,-0.015 -1.334833,0.31353 -0.437492,0.26641 -0.725045,0.5653 -0.982477,1.0212 -0.500372,0.88607 -0.632541,1.53002 -0.632541,3.08206 0,0.732 0.06048,1.57991 0.134274,1.88423 0.160912,0.66308 0.751114,1.7269 1.149861,2.07259 0.770626,0.66809 1.82572,0.75896 2.69796,0.23231 z m -19.50170342,-4.30242 0.07391,1.24457"
     style="fill:#4d4d4d;fill-opacity:1;stroke-width:0.122342"
     id="path328-9" /><g
     id="g2323-6-0"
     style="fill:#fe6629;fill-opacity:1"
     transform="matrix(0.38468052,0,0,0.45525673,-31.744692,-75.163205)"><path
       d="m 108.94876,204.22063 c -0.94588,-0.4317 -1.76712,-0.82983 -1.82499,-0.88472 -0.18962,-0.17995 5.86349,-22.12073 6.29574,-22.82011 0.16515,-0.26723 0.61124,-0.23264 2.16807,0.16811 1.07807,0.27752 1.94585,0.61121 1.92836,0.74155 -0.0533,0.3976 -1.95781,7.27734 -2.48263,8.96824 -0.27102,0.87312 -1.28929,4.445 -2.26285,7.9375 -0.97356,3.4925 -1.84478,6.42297 -1.93601,6.51217 -0.0913,0.0892 -0.9398,-0.19104 -1.88569,-0.62274 z M 98.8946,198.18607 c -3.274214,-2.04392 -6.816324,-4.21056 -7.871354,-4.81475 -1.71506,-0.98218 -2.32063,-1.52242 -1.70654,-1.52242 0.19859,0 5.88167,-3.23174 12.721034,-7.23396 1.65595,-0.96903 3.05493,-1.76187 3.10885,-1.76187 0.0539,0 0.098,1.05318 0.098,2.34039 v 2.34039 l -4.81399,2.31189 -4.814014,2.3119 1.30829,0.73684 c 0.719524,0.40527 2.885834,1.59343 4.813984,2.64036 l 3.50573,1.90351 v 2.23236 c 0,1.2278 -0.0893,2.23219 -0.19844,2.23197 -0.10914,-2.2e-4 -2.87734,-1.67269 -6.15156,-3.71661 z"
       style="fill:#fe6629;fill-opacity:1;stroke-width:0.264583"
       id="path351-1-0" /><path
       d="m 126.09199,187.66114 c 3.27421,2.04392 6.81632,4.21056 7.87135,4.81475 1.71506,0.98218 2.32063,1.52242 1.70654,1.52242 -0.19859,0 -5.88167,3.23174 -12.72103,7.23396 -1.65595,0.96903 -3.05493,1.76187 -3.10885,1.76187 -0.0539,0 -0.098,-1.05318 -0.098,-2.34039 v -2.34039 l 4.81399,-2.31189 4.81401,-2.3119 -1.30829,-0.73684 c -0.71952,-0.40527 -2.88583,-1.59343 -4.81398,-2.64036 l -3.50573,-1.90351 v -2.23236 c 0,-1.2278 0.0893,-2.23219 0.19844,-2.23197 0.10914,2.2e-4 2.87734,1.67269 6.15156,3.71661 z"
       style="fill:#fe6629;fill-opacity:1;stroke-width:0.264583"
       id="path374-6-6" /></g></svg>
